<svg width="96" height="298" viewBox="0 0 96 298" fill="none" xmlns="http://www.w3.org/2000/svg">
<rect x="7" y="218" width="81" height="36" rx="8" fill="#C4C4C4"/>
<g filter="url(#filter0_d)">
<rect x="4" width="88" height="210" rx="7" fill="#225911"/>
</g>
<rect x="11" y="7" width="75" height="33" rx="8" fill="#EAA92B"/>
<path d="M49.212 21.588L48.694 24.01H50.542V25.41H48.4L47.84 28H46.314L46.874 25.41H44.13L43.57 28H42.044L42.604 25.41H40.434V24.01H42.898L43.416 21.588H41.26V20.188H43.71L44.256 17.64H45.782L45.236 20.188H47.98L48.526 17.64H50.052L49.506 20.188H51.368V21.588H49.212ZM47.686 21.588H44.942L44.424 24.01H47.168L47.686 21.588ZM52.559 19.25V17.794H55.471V28H53.861V19.25H52.559Z" fill="white"/>
<rect x="11" y="48" width="75" height="33" rx="8" fill="#EAA92B"/>
<path d="M49.212 62.588L48.694 65.01H50.542V66.41H48.4L47.84 69H46.314L46.874 66.41H44.13L43.57 69H42.044L42.604 66.41H40.434V65.01H42.898L43.416 62.588H41.26V61.188H43.71L44.256 58.64H45.782L45.236 61.188H47.98L48.526 58.64H50.052L49.506 61.188H51.368V62.588H49.212ZM47.686 62.588H44.942L44.424 65.01H47.168L47.686 62.588ZM53.651 66.83C54.547 66.0553 55.2517 65.4207 55.765 64.926C56.2877 64.422 56.7217 63.8993 57.067 63.358C57.4123 62.8167 57.585 62.2753 57.585 61.734C57.585 61.174 57.4497 60.7353 57.179 60.418C56.9177 60.1007 56.5023 59.942 55.933 59.942C55.3823 59.942 54.953 60.1193 54.645 60.474C54.3463 60.8193 54.1877 61.286 54.169 61.874H52.629C52.657 60.81 52.9743 59.998 53.581 59.438C54.197 58.8687 54.9763 58.584 55.919 58.584C56.9363 58.584 57.7297 58.864 58.299 59.424C58.8777 59.984 59.167 60.7307 59.167 61.664C59.167 62.336 58.9943 62.9847 58.649 63.61C58.313 64.226 57.907 64.7813 57.431 65.276C56.9643 65.7613 56.367 66.326 55.639 66.97L55.009 67.53H59.447V68.86H52.643V67.698L53.651 66.83Z" fill="white"/>
<rect x="11" y="130" width="75" height="33" rx="8" fill="#EAA92B"/>
<path d="M44.6623 144.588L44.1443 147.01H45.9923V148.41H43.8503L43.2903 151H41.7643L42.3243 148.41H39.5803L39.0203 151H37.4943L38.0543 148.41H35.8843V147.01H38.3483L38.8663 144.588H36.7103V143.188H39.1603L39.7063 140.64H41.2323L40.6863 143.188H43.4303L43.9763 140.64H45.5023L44.9563 143.188H46.8183V144.588H44.6623ZM43.1363 144.588H40.3923L39.8743 147.01H42.6183L43.1363 144.588ZM54.7993 142.166H50.1093V144.952C50.3053 144.691 50.5946 144.471 50.9773 144.294C51.3693 144.117 51.7846 144.028 52.2233 144.028C53.0073 144.028 53.6419 144.196 54.1273 144.532C54.6219 144.868 54.9719 145.293 55.1773 145.806C55.3919 146.319 55.4993 146.861 55.4993 147.43C55.4993 148.121 55.3639 148.737 55.0933 149.278C54.8319 149.81 54.4353 150.23 53.9033 150.538C53.3806 150.846 52.7366 151 51.9713 151C50.9539 151 50.1373 150.748 49.5213 150.244C48.9053 149.74 48.5366 149.073 48.4153 148.242H49.9693C50.0719 148.681 50.3006 149.031 50.6553 149.292C51.0099 149.544 51.4533 149.67 51.9853 149.67C52.6479 149.67 53.1426 149.469 53.4693 149.068C53.8053 148.667 53.9733 148.135 53.9733 147.472C53.9733 146.8 53.8053 146.287 53.4693 145.932C53.1333 145.568 52.6386 145.386 51.9853 145.386C51.5279 145.386 51.1406 145.503 50.8233 145.736C50.5153 145.96 50.2913 146.268 50.1513 146.66H48.6393V140.766H54.7993V142.166ZM56.6707 142.25V140.794H59.5827V151H57.9727V142.25H56.6707ZM61.2852 142.25V140.794H64.1972V151H62.5872V142.25H61.2852Z" fill="white"/>
<rect x="11" y="171" width="75" height="33" rx="8" fill="#EAA92B"/>
<path d="M43.212 185.588L42.694 188.01H44.542V189.41H42.4L41.84 192H40.314L40.874 189.41H38.13L37.57 192H36.044L36.604 189.41H34.434V188.01H36.898L37.416 185.588H35.26V184.188H37.71L38.256 181.64H39.782L39.236 184.188H41.98L42.526 181.64H44.052L43.506 184.188H45.368V185.588H43.212ZM41.686 185.588H38.942L38.424 188.01H41.168L41.686 185.588ZM53.349 183.166H48.659V185.952C48.855 185.691 49.1443 185.471 49.527 185.294C49.919 185.117 50.3343 185.028 50.773 185.028C51.557 185.028 52.1917 185.196 52.677 185.532C53.1717 185.868 53.5217 186.293 53.727 186.806C53.9417 187.319 54.049 187.861 54.049 188.43C54.049 189.121 53.9137 189.737 53.643 190.278C53.3817 190.81 52.985 191.23 52.453 191.538C51.9303 191.846 51.2863 192 50.521 192C49.5037 192 48.687 191.748 48.071 191.244C47.455 190.74 47.0863 190.073 46.965 189.242H48.519C48.6217 189.681 48.8503 190.031 49.205 190.292C49.5597 190.544 50.003 190.67 50.535 190.67C51.1977 190.67 51.6923 190.469 52.019 190.068C52.355 189.667 52.523 189.135 52.523 188.472C52.523 187.8 52.355 187.287 52.019 186.932C51.683 186.568 51.1883 186.386 50.535 186.386C50.0777 186.386 49.6903 186.503 49.373 186.736C49.065 186.96 48.841 187.268 48.701 187.66H47.189V181.766H53.349V183.166ZM55.2204 183.25V181.794H58.1324V192H56.5224V183.25H55.2204ZM60.9269 189.83C61.8229 189.055 62.5276 188.421 63.0409 187.926C63.5636 187.422 63.9976 186.899 64.3429 186.358C64.6883 185.817 64.8609 185.275 64.8609 184.734C64.8609 184.174 64.7256 183.735 64.4549 183.418C64.1936 183.101 63.7783 182.942 63.2089 182.942C62.6583 182.942 62.2289 183.119 61.9209 183.474C61.6223 183.819 61.4636 184.286 61.4449 184.874H59.9049C59.9329 183.81 60.2503 182.998 60.8569 182.438C61.4729 181.869 62.2523 181.584 63.1949 181.584C64.2123 181.584 65.0056 181.864 65.5749 182.424C66.1536 182.984 66.4429 183.731 66.4429 184.664C66.4429 185.336 66.2703 185.985 65.9249 186.61C65.5889 187.226 65.1829 187.781 64.7069 188.276C64.2403 188.761 63.6429 189.326 62.9149 189.97L62.2849 190.53H66.7229V191.86H59.9189V190.698L60.9269 189.83Z" fill="white"/>
<path d="M48.694 100.098C48.4047 100.098 48.162 100 47.966 99.804C47.77 99.608 47.672 99.3653 47.672 99.076C47.672 98.7867 47.77 98.544 47.966 98.348C48.162 98.152 48.4047 98.054 48.694 98.054C48.974 98.054 49.212 98.152 49.408 98.348C49.604 98.544 49.702 98.7867 49.702 99.076C49.702 99.3653 49.604 99.608 49.408 99.804C49.212 100 48.974 100.098 48.694 100.098ZM48.694 105.098C48.4047 105.098 48.162 105 47.966 104.804C47.77 104.608 47.672 104.365 47.672 104.076C47.672 103.787 47.77 103.544 47.966 103.348C48.162 103.152 48.4047 103.054 48.694 103.054C48.974 103.054 49.212 103.152 49.408 103.348C49.604 103.544 49.702 103.787 49.702 104.076C49.702 104.365 49.604 104.608 49.408 104.804C49.212 105 48.974 105.098 48.694 105.098ZM48.694 110.098C48.4047 110.098 48.162 110 47.966 109.804C47.77 109.608 47.672 109.365 47.672 109.076C47.672 108.787 47.77 108.544 47.966 108.348C48.162 108.152 48.4047 108.054 48.694 108.054C48.974 108.054 49.212 108.152 49.408 108.348C49.604 108.544 49.702 108.787 49.702 109.076C49.702 109.365 49.604 109.608 49.408 109.804C49.212 110 48.974 110.098 48.694 110.098Z" fill="white"/>
<path d="M40.212 234.588L39.694 237.01H41.542V238.41H39.4L38.84 241H37.314L37.874 238.41H35.13L34.57 241H33.044L33.604 238.41H31.434V237.01H33.898L34.416 234.588H32.26V233.188H34.71L35.256 230.64H36.782L36.236 233.188H38.98L39.526 230.64H41.052L40.506 233.188H42.368V234.588H40.212ZM38.686 234.588H35.942L35.424 237.01H38.168L38.686 234.588ZM50.349 232.166H45.659V234.952C45.855 234.691 46.1443 234.471 46.527 234.294C46.919 234.117 47.3343 234.028 47.773 234.028C48.557 234.028 49.1917 234.196 49.677 234.532C50.1717 234.868 50.5217 235.293 50.727 235.806C50.9417 236.319 51.049 236.861 51.049 237.43C51.049 238.121 50.9137 238.737 50.643 239.278C50.3817 239.81 49.985 240.23 49.453 240.538C48.9303 240.846 48.2863 241 47.521 241C46.5037 241 45.687 240.748 45.071 240.244C44.455 239.74 44.0863 239.073 43.965 238.242H45.519C45.6217 238.681 45.8503 239.031 46.205 239.292C46.5597 239.544 47.003 239.67 47.535 239.67C48.1977 239.67 48.6923 239.469 49.019 239.068C49.355 238.667 49.523 238.135 49.523 237.472C49.523 236.8 49.355 236.287 49.019 235.932C48.683 235.568 48.1883 235.386 47.535 235.386C47.0777 235.386 46.6903 235.503 46.373 235.736C46.065 235.96 45.841 236.268 45.701 236.66H44.189V230.766H50.349V232.166ZM52.2204 232.25V230.794H55.1324V241H53.5224V232.25H52.2204ZM57.0169 233.314C57.0729 232.446 57.4043 231.769 58.0109 231.284C58.6269 230.799 59.4109 230.556 60.3629 230.556C61.0163 230.556 61.5809 230.673 62.0569 230.906C62.5329 231.139 62.8923 231.457 63.1349 231.858C63.3776 232.259 63.4989 232.712 63.4989 233.216C63.4989 233.795 63.3449 234.289 63.0369 234.7C62.7289 235.111 62.3603 235.386 61.9309 235.526V235.582C62.4816 235.75 62.9109 236.058 63.2189 236.506C63.5269 236.945 63.6809 237.509 63.6809 238.2C63.6809 238.751 63.5549 239.241 63.3029 239.67C63.0509 240.099 62.6776 240.44 62.1829 240.692C61.6883 240.935 61.0956 241.056 60.4049 241.056C59.3969 241.056 58.5663 240.799 57.9129 240.286C57.2689 239.763 56.9236 239.017 56.8769 238.046H58.4169C58.4543 238.541 58.6456 238.947 58.9909 239.264C59.3363 239.572 59.8029 239.726 60.3909 239.726C60.9603 239.726 61.3989 239.572 61.7069 239.264C62.0149 238.947 62.1689 238.541 62.1689 238.046C62.1689 237.393 61.9589 236.931 61.5389 236.66C61.1283 236.38 60.4936 236.24 59.6349 236.24H59.2709V234.924H59.6489C60.4049 234.915 60.9789 234.789 61.3709 234.546C61.7723 234.303 61.9729 233.921 61.9729 233.398C61.9729 232.95 61.8283 232.595 61.5389 232.334C61.2496 232.063 60.8389 231.928 60.3069 231.928C59.7843 231.928 59.3783 232.063 59.0889 232.334C58.7996 232.595 58.6269 232.922 58.5709 233.314H57.0169Z" fill="white"/>
<rect x="7" y="262" width="81" height="36" rx="8" fill="#C4C4C4"/>
<path d="M40.212 278.588L39.694 281.01H41.542V282.41H39.4L38.84 285H37.314L37.874 282.41H35.13L34.57 285H33.044L33.604 282.41H31.434V281.01H33.898L34.416 278.588H32.26V277.188H34.71L35.256 274.64H36.782L36.236 277.188H38.98L39.526 274.64H41.052L40.506 277.188H42.368V278.588H40.212ZM38.686 278.588H35.942L35.424 281.01H38.168L38.686 278.588ZM50.349 276.166H45.659V278.952C45.855 278.691 46.1443 278.471 46.527 278.294C46.919 278.117 47.3343 278.028 47.773 278.028C48.557 278.028 49.1917 278.196 49.677 278.532C50.1717 278.868 50.5217 279.293 50.727 279.806C50.9417 280.319 51.049 280.861 51.049 281.43C51.049 282.121 50.9137 282.737 50.643 283.278C50.3817 283.81 49.985 284.23 49.453 284.538C48.9303 284.846 48.2863 285 47.521 285C46.5037 285 45.687 284.748 45.071 284.244C44.455 283.74 44.0863 283.073 43.965 282.242H45.519C45.6217 282.681 45.8503 283.031 46.205 283.292C46.5597 283.544 47.003 283.67 47.535 283.67C48.1977 283.67 48.6923 283.469 49.019 283.068C49.355 282.667 49.523 282.135 49.523 281.472C49.523 280.8 49.355 280.287 49.019 279.932C48.683 279.568 48.1883 279.386 47.535 279.386C47.0777 279.386 46.6903 279.503 46.373 279.736C46.065 279.96 45.841 280.268 45.701 280.66H44.189V274.766H50.349V276.166ZM52.2204 276.25V274.794H55.1324V285H53.5224V276.25H52.2204ZM56.8489 282.872V281.668L61.5529 274.92H63.4849V281.486H64.7869V282.872H63.4849V285H61.9169V282.872H56.8489ZM61.9869 276.544L58.6829 281.486H61.9869V276.544Z" fill="white"/>
<defs>
<filter id="filter0_d" x="0" y="0" width="96" height="218" filterUnits="userSpaceOnUse" color-interpolation-filters="sRGB">
<feFlood flood-opacity="0" result="BackgroundImageFix"/>
<feColorMatrix in="SourceAlpha" type="matrix" values="0 0 0 0 0 0 0 0 0 0 0 0 0 0 0 0 0 0 127 0"/>
<feOffset dy="4"/>
<feGaussianBlur stdDeviation="2"/>
<feColorMatrix type="matrix" values="0 0 0 0 0 0 0 0 0 0 0 0 0 0 0 0 0 0 0.25 0"/>
<feBlend mode="normal" in2="BackgroundImageFix" result="effect1_dropShadow"/>
<feBlend mode="normal" in="SourceGraphic" in2="effect1_dropShadow" result="shape"/>
</filter>
</defs>
</svg>
